<svg width="107" height="110" viewBox="0 0 107 110" fill="none" xmlns="http://www.w3.org/2000/svg">
<path fill-rule="evenodd" clip-rule="evenodd" d="M70.3732 104.387H70.3597C69.7852 104.387 69.2813 104.616 68.8618 104.945C68.7809 105.009 68.6798 105.047 68.6074 105.12C68.2046 105.527 67.9721 106.083 67.9216 106.691C67.9165 106.759 67.8828 106.818 67.8828 106.888C67.8828 107.196 67.9553 107.485 68.0581 107.756C68.0918 107.844 68.1339 107.921 68.176 108.004C68.267 108.182 68.3765 108.347 68.5079 108.498C68.572 108.572 68.6293 108.649 68.7017 108.715C68.9005 108.896 69.1196 109.056 69.369 109.166H69.3707C69.679 109.304 70.016 109.387 70.3732 109.387C71.4802 109.387 72.3851 108.647 72.7069 107.637C72.7928 107.407 72.8518 107.166 72.8535 106.901C72.8535 106.896 72.8569 106.893 72.8569 106.888C72.8569 105.505 71.7448 104.387 70.3732 104.387ZM105.119 74.575C104.878 74.4732 104.61 74.4342 104.336 74.4156C104.287 74.4139 104.248 74.3867 104.197 74.3867H104.184C102.812 74.3867 101.707 75.5061 101.707 76.8884C101.707 77.2242 101.778 77.5414 101.897 77.8297C101.982 78.0367 102.12 78.2029 102.25 78.3776C102.304 78.4437 102.334 78.5251 102.391 78.5862C102.804 79.0272 103.373 79.2985 104.01 79.3494C104.014 79.3494 104.017 79.3511 104.021 79.3528V79.3511C104.081 79.3562 104.135 79.3867 104.197 79.3867C105.569 79.3867 106.681 78.2673 106.681 76.8884C106.681 75.8369 106.032 74.9447 105.119 74.575ZM19.6388 30.3867H19.6254C18.2538 30.3867 17.1484 31.5061 17.1484 32.8867C17.1484 34.2656 18.2673 35.3867 19.6388 35.3867C21.0087 35.3867 22.1225 34.2656 22.1225 32.8867C22.1225 31.5061 21.0087 30.3867 19.6388 30.3867ZM19.6388 89.3867H19.6254C18.2538 89.3867 17.1484 90.5048 17.1484 91.8876C17.1484 93.2669 18.2673 94.3867 19.6388 94.3867C21.0087 94.3867 22.1225 93.2669 22.1225 91.8876C22.1225 90.5048 21.0087 89.3867 19.6388 89.3867ZM36.549 50.3867C37.9206 50.3867 39.0327 49.2656 39.0327 47.8867C39.0327 46.5044 37.9206 45.3867 36.549 45.3867H36.5372C35.1639 45.3867 34.0586 46.5044 34.0586 47.8867C34.0586 49.2656 35.1774 50.3867 36.549 50.3867ZM19.6388 15.3867H19.6254C18.2538 15.3867 17.1484 16.5061 17.1484 17.8867C17.1484 19.2673 18.2673 20.3867 19.6388 20.3867C21.0087 20.3867 22.1225 19.2673 22.1225 17.8867C22.1225 16.5061 21.0087 15.3867 19.6388 15.3867ZM19.6388 59.3867H19.6254C18.2538 59.3867 17.1484 60.5061 17.1484 61.8867C17.1484 63.2673 18.2673 64.3867 19.6388 64.3867C21.0087 64.3867 22.1225 63.2673 22.1225 61.8867C22.1225 60.5061 21.0087 59.3867 19.6388 59.3867ZM19.6388 74.3867H19.6254C18.2538 74.3867 17.1484 75.5061 17.1484 76.8884C17.1484 78.2673 18.2673 79.3867 19.6388 79.3867C21.0087 79.3867 22.1225 78.2673 22.1225 76.8884C22.1225 75.5061 21.0087 74.3867 19.6388 74.3867ZM36.549 20.3867C37.9206 20.3867 39.0327 19.2673 39.0327 17.8867C39.0327 16.5061 37.9206 15.3867 36.549 15.3867H36.5372C35.1639 15.3867 34.0586 16.5061 34.0586 17.8867C34.0586 19.2673 35.1774 20.3867 36.549 20.3867ZM36.549 35.3867C37.9206 35.3867 39.0327 34.2656 39.0327 32.8867C39.0327 31.5061 37.9206 30.3867 36.549 30.3867H36.5372C35.1639 30.3867 34.0586 31.5061 34.0586 32.8867C34.0586 34.2656 35.1774 35.3867 36.549 35.3867ZM36.549 5.38672C37.9206 5.38672 39.0327 4.26732 39.0327 2.88672C39.0327 1.50612 37.9206 0.386719 36.549 0.386719H36.5372C35.1639 0.386719 34.0586 1.50612 34.0586 2.88672C34.0586 4.26732 35.1774 5.38672 36.549 5.38672ZM19.6388 45.3867H19.6254C18.2538 45.3867 17.1484 46.5044 17.1484 47.8867C17.1484 49.2656 18.2673 50.3867 19.6388 50.3867C21.0087 50.3867 22.1225 49.2656 22.1225 47.8867C22.1225 46.5044 21.0087 45.3867 19.6388 45.3867ZM2.72646 59.3867H2.7113C1.33972 59.3867 0.234375 60.5061 0.234375 61.8867C0.234375 63.2673 1.35489 64.3867 2.72646 64.3867C4.09804 64.3867 5.20844 63.2673 5.20844 61.8867C5.20844 60.5061 4.09804 59.3867 2.72646 59.3867ZM2.72646 45.3867H2.7113C1.33972 45.3867 0.234375 46.5044 0.234375 47.8867C0.234375 49.2656 1.35489 50.3867 2.72646 50.3867C4.09804 50.3867 5.20844 49.2656 5.20844 47.8867C5.20844 46.5044 4.09804 45.3867 2.72646 45.3867ZM2.72562 74.3867H2.71045C2.39862 74.3867 2.10702 74.458 1.83565 74.5665C1.69743 74.6191 1.58282 74.7039 1.45809 74.7802C1.35358 74.8464 1.24739 74.9057 1.153 74.9888C0.989502 75.1228 0.8614 75.2788 0.73667 75.4519C0.713072 75.4875 0.689474 75.5197 0.665876 75.5587C0.531032 75.769 0.431585 75.9895 0.364163 76.2371L0.362477 76.2388V76.2405C0.305168 76.4508 0.234375 76.6578 0.234375 76.8884C0.234375 77.8721 0.815891 78.7049 1.64013 79.112V79.1137H1.64181C1.97049 79.2748 2.32446 79.3816 2.71214 79.3833C2.71719 79.3833 2.72056 79.3867 2.72562 79.3867C4.09766 79.3867 5.20844 78.2673 5.20844 76.8884C5.20844 76.5424 5.13933 76.2134 5.01292 75.9149C4.63704 75.0177 3.75381 74.3867 2.72562 74.3867ZM87.2834 45.3867H87.2699C85.8983 45.3867 84.793 46.5044 84.793 47.8867C84.793 49.2656 85.9118 50.3867 87.2834 50.3867C88.6549 50.3867 89.767 49.2656 89.767 47.8867C89.767 46.5044 88.6549 45.3867 87.2834 45.3867ZM2.72562 30.3867H2.71045C2.42728 30.3867 2.16602 30.4495 1.91993 30.5478C1.69575 30.6259 1.50022 30.7429 1.31144 30.8786C1.30976 30.8786 1.30976 30.8786 1.30807 30.8803C0.672619 31.3331 0.234375 32.0421 0.234375 32.8867C0.234375 32.9936 0.28157 33.0835 0.295055 33.1886H0.293369C0.293369 33.192 0.295055 33.1937 0.29674 33.1954C0.374276 33.8043 0.64565 34.3419 1.07884 34.732C1.13783 34.7863 1.212 34.8168 1.27436 34.8643C1.4446 34.9898 1.6081 35.1204 1.80868 35.2001C2.09017 35.3172 2.39694 35.3867 2.72562 35.3867C3.75381 35.3867 4.63704 34.7575 5.01292 33.8586C5.13933 33.5601 5.20844 33.231 5.20844 32.8867C5.20844 32.5424 5.13933 32.2134 5.01292 31.9149C4.63704 31.016 3.75381 30.3867 2.72562 30.3867ZM87.2834 59.3867H87.2699C85.8983 59.3867 84.793 60.5061 84.793 61.8867C84.793 63.2673 85.9118 64.3867 87.2834 64.3867C88.6549 64.3867 89.767 63.2673 89.767 61.8867C89.767 60.5061 88.6549 59.3867 87.2834 59.3867ZM87.2834 30.3867H87.2699C85.8983 30.3867 84.793 31.5061 84.793 32.8867C84.793 34.2656 85.9118 35.3867 87.2834 35.3867C88.6549 35.3867 89.767 34.2656 89.767 32.8867C89.767 31.5061 88.6549 30.3867 87.2834 30.3867ZM87.2834 89.3867H87.2699C85.8983 89.3867 84.793 90.5048 84.793 91.8876C84.793 93.2669 85.9118 94.3867 87.2834 94.3867C88.6549 94.3867 89.767 93.2669 89.767 91.8876C89.767 90.5048 88.6549 89.3867 87.2834 89.3867ZM87.2834 74.3867H87.2699C85.8983 74.3867 84.793 75.5061 84.793 76.8884C84.793 78.2673 85.9118 79.3867 87.2834 79.3867C88.6549 79.3867 89.767 78.2673 89.767 76.8884C89.767 75.5061 88.6549 74.3867 87.2834 74.3867ZM70.3741 5.38672C71.7452 5.38672 72.8569 4.26732 72.8569 2.88672C72.8569 2.88672 72.8552 2.88502 72.8552 2.88333C72.8552 2.47797 72.7373 2.10992 72.5655 1.77071C72.5486 1.73848 72.5267 1.71474 72.5082 1.68421C72.328 1.36365 72.082 1.09737 71.7839 0.883666H71.7822C71.3763 0.593639 70.908 0.386719 70.3741 0.386719H70.3606C68.9895 0.386719 67.8828 1.50612 67.8828 2.88672C67.8828 4.26732 69.0029 5.38672 70.3741 5.38672ZM87.2834 15.3867H87.2699C85.8983 15.3867 84.793 16.5061 84.793 17.8867C84.793 19.2673 85.9118 20.3867 87.2834 20.3867C88.6549 20.3867 89.767 19.2673 89.767 17.8867C89.767 16.5061 88.6549 15.3867 87.2834 15.3867ZM70.3732 30.3867H70.3597C68.9882 30.3867 67.8828 31.5061 67.8828 32.8867C67.8828 34.2656 69.0016 35.3867 70.3732 35.3867C71.7448 35.3867 72.8569 34.2656 72.8569 32.8867C72.8569 31.5061 71.7448 30.3867 70.3732 30.3867ZM70.3732 74.3867H70.3597C68.9882 74.3867 67.8828 75.5061 67.8828 76.8884C67.8828 78.2673 69.0016 79.3867 70.3732 79.3867C71.7448 79.3867 72.8569 78.2673 72.8569 76.8884C72.8569 75.5061 71.7448 74.3867 70.3732 74.3867ZM70.3732 59.3867H70.3597C68.9882 59.3867 67.8828 60.5061 67.8828 61.8867C67.8828 63.2673 69.0016 64.3867 70.3732 64.3867C71.7448 64.3867 72.8569 63.2673 72.8569 61.8867C72.8569 60.5061 71.7448 59.3867 70.3732 59.3867ZM70.3732 45.3867H70.3597C68.9882 45.3867 67.8828 46.5044 67.8828 47.8867C67.8828 49.2656 69.0016 50.3867 70.3732 50.3867C71.7448 50.3867 72.8569 49.2656 72.8569 47.8867C72.8569 46.5044 71.7448 45.3867 70.3732 45.3867ZM70.3732 89.3867H70.3597C68.9882 89.3867 67.8828 90.5048 67.8828 91.8876C67.8828 93.2669 69.0016 94.3867 70.3732 94.3867C71.7448 94.3867 72.8569 93.2669 72.8569 91.8876C72.8569 90.5048 71.7448 89.3867 70.3732 89.3867ZM36.549 64.3867C37.9206 64.3867 39.0327 63.2673 39.0327 61.8867C39.0327 60.5061 37.9206 59.3867 36.549 59.3867H36.5372C35.1639 59.3867 34.0586 60.5061 34.0586 61.8867C34.0586 63.2673 35.1774 64.3867 36.549 64.3867ZM38.3047 105.12C38.2306 105.045 38.1295 105.008 38.0469 104.945C37.6274 104.616 37.1236 104.387 36.549 104.387H36.5355C35.1639 104.387 34.0586 105.505 34.0586 106.888C34.0586 107.566 34.3332 108.177 34.7713 108.628C34.773 108.63 34.773 108.632 34.7747 108.632C35.2263 109.097 35.8531 109.387 36.549 109.387C36.6804 109.387 36.7933 109.332 36.9197 109.312C36.9214 109.312 36.9231 109.31 36.9247 109.31C37.5111 109.219 38.0234 108.947 38.3957 108.518C38.4564 108.452 38.4918 108.37 38.544 108.297C38.6569 108.136 38.7765 107.984 38.8507 107.799C38.9619 107.522 39.0276 107.22 39.0293 106.898C39.0293 106.894 39.0327 106.893 39.0327 106.888C39.0327 106.253 38.7782 105.69 38.3924 105.249C38.357 105.208 38.3418 105.155 38.3047 105.12ZM103.229 35.19C103.527 35.3172 103.854 35.3867 104.198 35.3867C104.561 35.3867 104.899 35.3002 105.21 35.1595C105.22 35.1544 105.226 35.146 105.237 35.1409C105.54 34.9985 105.801 34.7984 106.022 34.5508C106.423 34.1083 106.681 33.5319 106.681 32.8876C106.681 31.5074 105.569 30.3867 104.198 30.3867H104.185C102.813 30.3867 101.707 31.5074 101.707 32.8876C101.707 33.9218 102.336 34.8103 103.229 35.19ZM104.198 50.3867C105.569 50.3867 106.681 49.2656 106.681 47.8867C106.681 46.5044 105.569 45.3867 104.198 45.3867H104.185C102.813 45.3867 101.707 46.5044 101.707 47.8867C101.707 49.2656 102.825 50.3867 104.198 50.3867ZM104.198 64.3867C105.569 64.3867 106.681 63.2673 106.681 61.8867C106.681 60.5061 105.569 59.3867 104.198 59.3867H104.185C102.813 59.3867 101.707 60.5061 101.707 61.8867C101.707 63.2673 102.825 64.3867 104.198 64.3867ZM53.4592 30.3867H53.4474C52.0758 30.3867 50.9688 31.5061 50.9688 32.8867C50.9688 34.2656 52.0876 35.3867 53.4592 35.3867C54.8307 35.3867 55.9428 34.2656 55.9428 32.8867C55.9428 31.5061 54.8307 30.3867 53.4592 30.3867ZM53.4592 15.3867H53.4474C52.0758 15.3867 50.9688 16.5061 50.9688 17.8867C50.9688 19.2673 52.0876 20.3867 53.4592 20.3867C54.8307 20.3867 55.9428 19.2673 55.9428 17.8867C55.9428 16.5061 54.8307 15.3867 53.4592 15.3867ZM53.4592 0.386719H53.4474C52.0758 0.386719 50.9688 1.50612 50.9688 2.88672C50.9688 4.26732 52.0876 5.38672 53.4592 5.38672C54.8307 5.38672 55.9428 4.26732 55.9428 2.88672C55.9428 1.50612 54.8307 0.386719 53.4592 0.386719ZM36.549 94.3867C37.9206 94.3867 39.0327 93.2669 39.0327 91.8876C39.0327 90.5048 37.9206 89.3867 36.549 89.3867H36.5372C35.1639 89.3867 34.0586 90.5048 34.0586 91.8876C34.0586 93.2669 35.1774 94.3867 36.549 94.3867ZM36.549 79.3867C37.9206 79.3867 39.0327 78.2673 39.0327 76.8884C39.0327 75.5061 37.9206 74.3867 36.549 74.3867H36.5372C35.1639 74.3867 34.0586 75.5061 34.0586 76.8884C34.0586 78.2673 35.1774 79.3867 36.549 79.3867ZM53.4592 45.3867H53.4474C52.0758 45.3867 50.9688 46.5044 50.9688 47.8867C50.9688 49.2656 52.0876 50.3867 53.4592 50.3867C54.8307 50.3867 55.9428 49.2656 55.9428 47.8867C55.9428 46.5044 54.8307 45.3867 53.4592 45.3867ZM70.3732 15.3867H70.3597C68.9882 15.3867 67.8828 16.5061 67.8828 17.8867C67.8828 19.2673 69.0016 20.3867 70.3732 20.3867C71.7448 20.3867 72.8569 19.2673 72.8569 17.8867C72.8569 16.5061 71.7448 15.3867 70.3732 15.3867ZM53.4592 89.3867H53.4474C52.0758 89.3867 50.9688 90.5048 50.9688 91.8876C50.9688 93.2669 52.0876 94.3867 53.4592 94.3867C54.8307 94.3867 55.9428 93.2669 55.9428 91.8876C55.9428 90.5048 54.8307 89.3867 53.4592 89.3867ZM53.4592 104.387H53.4474C52.0758 104.387 50.9688 105.507 50.9688 106.888C50.9688 108.269 52.0876 109.387 53.4592 109.387C54.8307 109.387 55.9428 108.269 55.9428 106.888C55.9428 105.507 54.8307 104.387 53.4592 104.387ZM53.4592 74.3867H53.4474C52.0758 74.3867 50.9688 75.5061 50.9688 76.8884C50.9688 78.2673 52.0876 79.3867 53.4592 79.3867C54.8307 79.3867 55.9428 78.2673 55.9428 76.8884C55.9428 75.5061 54.8307 74.3867 53.4592 74.3867ZM53.4592 59.3867H53.4474C52.0758 59.3867 50.9688 60.5061 50.9688 61.8867C50.9688 63.2673 52.0876 64.3867 53.4592 64.3867C54.8307 64.3867 55.9428 63.2673 55.9428 61.8867C55.9428 60.5061 54.8307 59.3867 53.4592 59.3867Z" fill="white"/>
</svg>
