<svg width="49" height="48" viewBox="0 0 49 48" fill="none" xmlns="http://www.w3.org/2000/svg">
<rect x="0.694336" y="-0.00732422" width="48" height="48" rx="24" fill="white"/>
<path d="M40.6943 23.9927C40.6943 15.1562 33.5308 7.99268 24.6943 7.99268C15.8579 7.99268 8.69434 15.1562 8.69434 23.9927C8.69434 31.496 13.8604 37.7924 20.8294 39.5216V28.8823H17.5302V23.9927H20.8294V21.8858C20.8294 16.44 23.294 13.9159 28.6406 13.9159C29.6543 13.9159 31.4035 14.1149 32.119 14.3133V18.7453C31.7414 18.7056 31.0854 18.6858 30.2707 18.6858C27.6473 18.6858 26.6335 19.6797 26.6335 22.2634V23.9927H31.8598L30.9619 28.8823H26.6335V39.8756C34.5561 38.9188 40.695 32.1732 40.695 23.9927H40.6943Z" fill="#0866FF"/>
<path d="M30.9612 28.8823L31.8591 23.9927H26.6329V22.2634C26.6329 19.6797 27.6467 18.6858 30.27 18.6858C31.0847 18.6858 31.7407 18.7057 32.1183 18.7453V14.3133C31.4028 14.1143 29.6537 13.9159 28.6399 13.9159C23.2934 13.9159 20.8287 16.4401 20.8287 21.8858V23.9927H17.5295V28.8823H20.8287V39.5217C22.0665 39.8289 23.3612 39.9927 24.6937 39.9927C25.3497 39.9927 25.9967 39.9524 26.6323 39.8756V28.8823H30.9606H30.9612Z" fill="white"/>
</svg>
