<svg width="26" height="79" viewBox="0 0 26 79" fill="none" xmlns="http://www.w3.org/2000/svg">
<mask id="mask0_33_289" style="mask-type:luminance" maskUnits="userSpaceOnUse" x="15" y="1" width="11" height="78">
<path fill-rule="evenodd" clip-rule="evenodd" d="M15.041 1.78125H25.3427V78.3978H15.041V1.78125Z" fill="white"/>
</mask>
<g mask="url(#mask0_33_289)">
<path fill-rule="evenodd" clip-rule="evenodd" d="M15.041 77.0732C15.041 73.3915 17.2878 71.5448 19.2675 69.9138C21.0936 68.4145 22.5338 67.2311 22.5338 64.7525C22.5338 62.2722 21.0936 61.0889 19.2675 59.5862C17.2878 57.9568 15.041 56.1102 15.041 52.4268C15.041 48.7467 17.2878 46.9001 19.2675 45.2707C21.0936 43.7714 22.5338 42.5864 22.5338 40.1094C22.5338 37.6291 21.0936 36.4441 19.2675 34.9431C17.2878 33.3121 15.041 31.4655 15.041 27.7805C15.041 24.0955 17.2861 22.2455 19.2675 20.6145C21.0918 19.1135 22.5338 17.9252 22.5338 15.4433C22.5338 12.9614 21.0918 11.7748 19.2675 10.2738C17.2861 8.64108 15.041 6.79281 15.041 3.10615C15.041 2.3754 15.6695 1.78125 16.4463 1.78125C17.2215 1.78125 17.8499 2.3754 17.8499 3.10615C17.8499 5.58971 19.2919 6.77635 21.1162 8.27735C23.0977 9.90837 25.3427 11.7566 25.3427 15.4433C25.3427 19.1283 23.0977 20.9782 21.1145 22.6093C19.2919 24.1119 17.8499 25.2986 17.8499 27.7805C17.8499 30.2607 19.2919 31.4474 21.1145 32.9468C23.0977 34.5778 25.3427 36.4244 25.3427 40.1094C25.3427 43.7911 23.0959 45.6378 21.1145 47.2671C19.2919 48.7665 17.8499 49.9515 17.8499 52.4268C17.8499 54.9071 19.2919 56.0905 21.1145 57.5915C23.0959 59.2208 25.3427 61.0691 25.3427 64.7525C25.3427 68.4342 23.0959 70.2825 21.1145 71.9119C19.2919 73.4112 17.8499 74.5962 17.8499 77.0732C17.8499 77.8039 17.2215 78.3981 16.4463 78.3981C15.6695 78.3981 15.041 77.8039 15.041 77.0732Z" fill="#E1B683"/>
</g>
<path fill-rule="evenodd" clip-rule="evenodd" d="M0.689453 75.7134C0.689453 72.0116 2.91085 70.1557 4.86817 68.5182C6.67187 67.0114 8.09757 65.8221 8.09757 63.3311C8.09757 60.8384 6.67187 59.6475 4.86817 58.139C2.91085 56.5014 0.689453 54.6456 0.689453 50.9438C0.689453 47.2436 2.91085 45.3894 4.86817 43.7503C6.67187 42.2451 8.09757 41.0541 8.09757 38.5648C8.09757 36.0721 6.67187 34.8795 4.86817 33.371C2.91085 31.7335 0.689453 29.876 0.689453 26.1742C0.689453 22.4691 2.90913 20.6116 4.86645 18.9724C6.67187 17.4622 8.09757 16.2696 8.09757 13.7753C8.09757 11.2793 6.67187 10.0884 4.86817 8.57824C2.90913 6.93906 0.689453 5.07989 0.689453 1.37644C0.689453 0.640385 1.31082 0.0449219 2.07718 0.0449219C2.84526 0.0449219 3.46664 0.640385 3.46664 1.37644C3.46664 3.87077 4.89234 5.06335 6.69604 6.57351C8.65508 8.21269 10.873 10.0702 10.873 13.7753C10.873 17.4788 8.65508 19.3379 6.69431 20.9771C4.89234 22.4873 3.46664 23.6798 3.46664 26.1742C3.46664 28.6669 4.89234 29.8578 6.69431 31.3663C8.65508 33.0038 10.873 34.8613 10.873 38.5648C10.873 42.2649 8.65336 44.1191 6.69431 45.7583C4.89061 47.2651 3.46664 48.4544 3.46664 50.9438C3.46664 53.4348 4.89061 54.6257 6.69431 56.1342C8.65336 57.7718 10.873 59.6293 10.873 63.3311C10.873 67.0312 8.65336 68.8887 6.69431 70.5246C4.89061 72.0314 3.46664 73.2224 3.46664 75.7134C3.46664 76.4478 2.84526 77.0449 2.07718 77.0449C1.31082 77.0449 0.689453 76.4478 0.689453 75.7134Z" fill="#E1B683"/>
</svg>
