<svg width="40" height="42" viewBox="0 0 40 42" fill="none" xmlns="http://www.w3.org/2000/svg">
<path fill-rule="evenodd" clip-rule="evenodd" d="M23.5621 39.9012L24.9931 38.1313C25.3336 37.7098 25.8751 37.5043 26.4091 37.5943L28.5181 37.9513C29.7106 38.1538 30.9346 37.8658 31.9141 37.1548C32.8921 36.4438 33.5431 35.3683 33.7201 34.1713L34.0321 32.0563C34.1116 31.5208 34.4731 31.0693 34.9801 30.8743L37.1056 30.0612C38.3746 29.5752 39.3556 28.5417 39.7756 27.2487C40.1956 25.9572 40.0096 24.5428 39.2686 23.4043L38.0266 21.4963C37.7311 21.0418 37.7041 20.4643 37.9546 19.9843L38.9461 18.0898C39.5056 17.0173 39.6121 15.7648 39.2371 14.6128C38.8636 13.4623 38.0416 12.5113 36.9586 11.9728L35.0431 11.0233C34.5586 10.7818 34.2406 10.2973 34.2121 9.75577L34.0951 7.48325C34.0246 6.12575 33.3451 4.87329 32.2456 4.07529C31.1461 3.27579 29.7451 3.01627 28.4326 3.36877L26.2351 3.95975C25.7116 4.10075 25.1536 3.94926 24.7741 3.56076L23.2786 2.03375C22.4311 1.16975 21.2731 0.682251 20.0626 0.682251C18.8521 0.682251 17.6941 1.16975 16.8466 2.03375L15.3511 3.56076C14.9716 3.94926 14.4136 4.10075 13.8901 3.95975L11.6926 3.36877C10.3801 3.01627 8.97912 3.27579 7.87962 4.07529C6.78012 4.87329 6.10062 6.12575 6.03011 7.48325L5.91311 9.75577C5.88461 10.2973 5.56661 10.7818 5.08211 11.0233L3.1666 11.9728C2.0836 12.5113 1.2616 13.4623 0.8881 14.6128C0.5131 15.7648 0.619602 17.0173 1.1791 18.0898L2.17062 19.9843C2.42112 20.4643 2.39411 21.0418 2.09861 21.4963L0.856606 23.4043C0.115608 24.5428 -0.0703888 25.9572 0.349609 27.2487C0.769611 28.5417 1.75061 29.5752 3.01961 30.0612L5.1451 30.8743C5.6521 31.0693 6.0136 31.5208 6.0931 32.0563L6.40511 34.1713C6.58212 35.3683 7.23311 36.4438 8.21111 37.1548C9.19061 37.8658 10.4146 38.1538 11.6071 37.9513L13.7161 37.5943C14.2501 37.5043 14.7916 37.7098 15.1321 38.1313L16.5631 39.9012C17.4181 40.9572 18.7036 41.5723 20.0626 41.5723C21.4216 41.5723 22.7071 40.9572 23.5621 39.9012ZM21.2296 38.0143C20.9446 38.3668 20.5156 38.5723 20.0626 38.5723C19.6096 38.5723 19.1806 38.3668 18.8956 38.0143L17.4661 36.2443C16.4431 34.9798 14.8186 34.3648 13.2151 34.6363L11.1076 34.9933C10.7101 35.0608 10.3021 34.9648 9.9751 34.7278C9.6481 34.4908 9.4321 34.1322 9.3736 33.7332L9.0601 31.6183C8.8231 30.0103 7.73711 28.6543 6.21761 28.0738L4.0921 27.2593C3.66911 27.0973 3.3421 26.7523 3.2026 26.3218C3.0631 25.8913 3.12461 25.4203 3.37211 25.0408L4.6126 23.1328C5.4991 21.7693 5.5816 20.0338 4.8286 18.5938L3.83862 16.6993C3.65112 16.3423 3.61662 15.9237 3.74111 15.5397C3.86561 15.1572 4.13861 14.8393 4.50011 14.6608L6.4156 13.7097C7.8721 12.9867 8.8246 11.5348 8.9086 9.91026L9.02561 7.63779C9.04961 7.18629 9.2761 6.76776 9.6421 6.50226C10.0096 6.23526 10.4761 6.14828 10.9141 6.26678L13.1116 6.85776C14.6821 7.27926 16.3576 6.82175 17.4946 5.66075L18.9901 4.13228C19.2736 3.84428 19.6591 3.68225 20.0626 3.68225C20.4661 3.68225 20.8516 3.84428 21.1351 4.13228L22.6306 5.66075C23.7676 6.82175 25.4431 7.27926 27.0136 6.85776L29.2111 6.26678C29.6491 6.14828 30.1156 6.23526 30.4831 6.50226C30.8491 6.76776 31.0756 7.18629 31.0996 7.63779L31.2166 9.91026C31.3006 11.5348 32.2531 12.9867 33.7096 13.7097L35.6251 14.6608C35.9866 14.8393 36.2596 15.1572 36.3841 15.5397C36.5086 15.9237 36.4741 16.3423 36.2866 16.6993L35.2966 18.5938C34.5436 20.0338 34.6261 21.7693 35.5126 23.1328L36.7531 25.0408C37.0006 25.4203 37.0621 25.8913 36.9226 26.3218C36.7831 26.7523 36.4561 27.0973 36.0331 27.2593L33.9076 28.0738C32.3881 28.6543 31.3021 30.0103 31.0651 31.6183L30.7516 33.7332C30.6931 34.1322 30.4771 34.4908 30.1501 34.7278C29.8231 34.9648 29.4151 35.0608 29.0176 34.9933L26.9101 34.6363C25.3066 34.3648 23.6821 34.9798 22.6591 36.2443L21.2296 38.0143ZM15.0286 17.7957C16.6576 18.0897 18.2191 17.0067 18.5146 15.3777C18.8086 13.7487 17.7256 12.1858 16.0966 11.8918C14.4676 11.5963 12.9046 12.6808 12.6106 14.3098C12.3151 15.9388 13.3996 17.5002 15.0286 17.7957ZM15.1231 27.9043L27.1231 15.9043C27.7081 15.3193 27.7081 14.3683 27.1231 13.7833C26.5381 13.1983 25.5871 13.1983 25.0021 13.7833L13.0021 25.7833C12.4171 26.3683 12.4171 27.3193 13.0021 27.9043C13.5871 28.4893 14.5381 28.4893 15.1231 27.9043ZM24.0286 29.7957C25.6576 30.0897 27.2191 29.0067 27.5146 27.3777C27.8086 25.7487 26.7256 24.1858 25.0966 23.8918C23.4676 23.5963 21.9046 24.6808 21.6106 26.3098C21.3151 27.9388 22.3996 29.5002 24.0286 29.7957Z" fill="#E1B683"/>
</svg>
