<svg width="139" height="72" viewBox="0 0 139 72" fill="none" xmlns="http://www.w3.org/2000/svg">
<mask id="path-1-inside-1_33_380" fill="white">
<path d="M0.681641 2.77599C0.681641 40.8261 31.5274 71.6719 69.5776 71.6719C107.628 71.6719 138.473 40.8261 138.473 2.77599V0.105766H0.681641V2.77599Z"/>
</mask>
<path d="M-29.3184 2.77596C-29.3184 57.3947 14.9589 101.672 69.5776 101.672C124.196 101.672 168.473 57.3947 168.473 2.77596H108.473C108.473 24.2576 91.0592 41.6719 69.5776 41.6719C48.0959 41.6719 30.6816 24.2576 30.6816 2.77596H-29.3184ZM138.473 0.105766H0.681641H138.473ZM-29.3184 0.105766V2.77596C-29.3184 57.3947 14.9589 101.672 69.5776 101.672V41.6719C48.0959 41.6719 30.6816 24.2576 30.6816 2.77596V0.105766H-29.3184ZM69.5776 101.672C124.196 101.672 168.473 57.3947 168.473 2.77596V0.105766H108.473V2.77596C108.473 24.2576 91.0592 41.6719 69.5776 41.6719V101.672Z" fill="#E1B683" mask="url(#path-1-inside-1_33_380)"/>
</svg>
