<svg width="337" height="389" viewBox="0 0 337 389" fill="none" xmlns="http://www.w3.org/2000/svg">
<g opacity="0.3">
<path d="M98.7129 153.047H336.378V269.183C336.378 334.812 283.175 388.015 217.545 388.015C151.916 388.015 98.7129 334.812 98.7129 269.183V153.047Z" fill="white"/>
<mask id="path-2-inside-1_35_45" fill="white">
<path d="M98.7129 119.684C98.7129 54.0547 151.916 0.851562 217.545 0.851562C283.175 0.851562 336.378 54.0547 336.378 119.684V124.29H98.7129V119.684Z"/>
</mask>
<path d="M48.7129 119.684C48.7129 26.4405 124.302 -49.1484 217.545 -49.1484H217.545C310.789 -49.1484 386.378 26.4405 386.378 119.684L286.378 119.684C286.378 81.6689 255.561 50.8516 217.545 50.8516C179.53 50.8516 148.713 81.6689 148.713 119.684L48.7129 119.684ZM336.378 124.29H98.7129H336.378ZM48.7129 124.29V119.684C48.7129 26.4405 124.302 -49.1484 217.545 -49.1484L217.545 50.8516C179.53 50.8516 148.713 81.6689 148.713 119.684V124.29H48.7129ZM217.545 -49.1484C310.789 -49.1484 386.378 26.4405 386.378 119.684V124.29H286.378V119.684C286.378 81.6689 255.561 50.8516 217.545 50.8516L217.545 -49.1484Z" fill="#E1B683" mask="url(#path-2-inside-1_35_45)"/>
</g>
<path d="M0.28125 153.051H237.946V269.187C237.946 334.816 184.743 388.019 119.114 388.019C53.4844 388.019 0.28125 334.816 0.28125 269.187V153.051Z" fill="white"/>
<mask id="path-5-inside-2_35_45" fill="white">
<path d="M0.28125 119.688C0.28125 54.0586 53.4844 0.855469 119.114 0.855469C184.743 0.855469 237.946 54.0586 237.946 119.688V124.294H0.28125L0.28125 119.688Z"/>
</mask>
<path d="M-49.7188 119.688C-49.7188 26.4444 25.8702 -49.1445 119.114 -49.1445H119.114C212.357 -49.1445 287.946 26.4444 287.946 119.688L187.946 119.688C187.946 81.6729 157.129 50.8555 119.114 50.8555C81.0986 50.8555 50.2812 81.6729 50.2812 119.688L-49.7188 119.688ZM237.946 124.294H0.28125H237.946ZM-49.7188 124.294V119.688C-49.7188 26.4444 25.8702 -49.1445 119.114 -49.1445L119.114 50.8555C81.0986 50.8555 50.2812 81.6729 50.2812 119.688V124.294H-49.7188ZM119.114 -49.1445C212.357 -49.1445 287.946 26.4444 287.946 119.688V124.294H187.946V119.688C187.946 81.6729 157.129 50.8555 119.114 50.8555L119.114 -49.1445Z" fill="#E1B683" mask="url(#path-5-inside-2_35_45)"/>
</svg>
