<svg width="33" height="33" viewBox="0 0 33 33" fill="none" xmlns="http://www.w3.org/2000/svg">
<g clip-path="url(#clip0_418_3504)">
<path d="M16.877 2.96274C21.149 2.96274 21.6556 2.97874 23.3423 3.05608C25.0863 3.13608 26.8823 3.53341 28.153 4.80408C29.4356 6.08674 29.821 7.86541 29.901 9.61475C29.9783 11.3014 29.9943 11.8081 29.9943 16.0801C29.9943 20.3521 29.9783 20.8587 29.901 22.5454C29.8223 24.2801 29.4156 26.0934 28.153 27.3561C26.8703 28.6387 25.093 29.0241 23.3423 29.1041C21.6556 29.1814 21.149 29.1974 16.877 29.1974C12.605 29.1974 12.0983 29.1814 10.4116 29.1041C8.69029 29.0254 6.85295 28.6094 5.60095 27.3561C4.32495 26.0801 3.93295 24.2841 3.85295 22.5454C3.77562 20.8587 3.75962 20.3521 3.75962 16.0801C3.75962 11.8081 3.77562 11.3014 3.85295 9.61475C3.93162 7.88674 4.34229 6.06275 5.60095 4.80408C6.88095 3.52408 8.66629 3.13608 10.4116 3.05608C12.0983 2.97874 12.605 2.96274 16.877 2.96274ZM16.877 0.0800781C12.5316 0.0800781 11.9863 0.0987448 10.2796 0.176078C7.80629 0.289411 5.35029 0.977411 3.56229 2.76541C1.76762 4.56008 1.08629 7.01075 0.972953 9.48275C0.89562 11.1894 0.876953 11.7347 0.876953 16.0801C0.876953 20.4254 0.89562 20.9707 0.972953 22.6774C1.08629 25.1481 1.77695 27.6107 3.56229 29.3947C5.35562 31.1881 7.81029 31.8707 10.2796 31.9841C11.9863 32.0614 12.5316 32.0801 16.877 32.0801C21.2223 32.0801 21.7676 32.0614 23.4743 31.9841C25.9463 31.8707 28.405 31.1814 30.1916 29.3947C31.9876 27.5987 32.6676 25.1494 32.781 22.6774C32.8583 20.9707 32.877 20.4254 32.877 16.0801C32.877 11.7347 32.8583 11.1894 32.781 9.48275C32.6676 7.00941 31.9783 4.55208 30.1916 2.76541C28.401 0.974745 25.9396 0.288078 23.4743 0.176078C21.7676 0.0987448 21.2223 0.0800781 16.877 0.0800781Z" fill="white"/>
<path d="M16.8762 7.86328C12.3388 7.86328 8.66016 11.5419 8.66016 16.0793C8.66016 20.6166 12.3388 24.2953 16.8762 24.2953C21.4135 24.2953 25.0922 20.6166 25.0922 16.0793C25.0922 11.5419 21.4135 7.86328 16.8762 7.86328ZM16.8762 21.4126C13.9308 21.4126 11.5428 19.0246 11.5428 16.0793C11.5428 13.1339 13.9308 10.7459 16.8762 10.7459C19.8215 10.7459 22.2095 13.1339 22.2095 16.0793C22.2095 19.0246 19.8215 21.4126 16.8762 21.4126Z" fill="white"/>
<path d="M25.418 9.45914C26.4784 9.45914 27.338 8.59953 27.338 7.53914C27.338 6.47875 26.4784 5.61914 25.418 5.61914C24.3577 5.61914 23.498 6.47875 23.498 7.53914C23.498 8.59953 24.3577 9.45914 25.418 9.45914Z" fill="white"/>
</g>
<defs>
<clipPath id="clip0_418_3504">
<rect width="32" height="32" fill="white" transform="translate(0.876953 0.0800781)"/>
</clipPath>
</defs>
</svg>
