<svg width="24" height="25" viewBox="0 0 24 25" fill="none" xmlns="http://www.w3.org/2000/svg">
<path d="M10.1008 16.4279C10.6189 17.6126 11.278 18.7306 12.0637 19.7576C12.8513 18.7307 13.5124 17.6128 14.0327 16.4279C12.7261 16.3676 11.4075 16.3676 10.1008 16.4279Z" fill="white"/>
<path d="M5.47046 16.8862C6.56998 18.4452 8.18394 19.5667 10.0286 20.0534C9.27867 18.9661 8.66019 17.7938 8.18602 16.561C7.27684 16.6393 6.36762 16.7477 5.47046 16.8862Z" fill="white"/>
<path d="M4.54923 9.29724C3.8026 11.1871 3.8026 13.2902 4.54923 15.18C5.5909 15.0054 6.63862 14.8669 7.65621 14.7646C7.28889 13.0986 7.28889 11.3726 7.65621 9.70668C6.63258 9.61035 5.59089 9.47189 4.54923 9.29724Z" fill="white"/>
<path d="M9.49874 14.6281C10.3538 14.5799 11.2088 14.5558 12.0638 14.5558C12.9248 14.5558 13.7798 14.5799 14.6348 14.6281C15.0202 13.0577 15.0202 11.4175 14.6348 9.84717C12.9243 9.94952 11.2093 9.94952 9.49875 9.84717C9.11338 11.4175 9.11337 13.0577 9.49874 14.6281Z" fill="white"/>
<path d="M19.5843 15.18C20.3229 13.2886 20.3229 11.1886 19.5843 9.29724C18.5426 9.47188 17.4949 9.61035 16.4773 9.70669C16.8446 11.3726 16.8446 13.0986 16.4773 14.7646C17.4949 14.8669 18.5426 15.0054 19.5843 15.18Z" fill="white"/>
<path d="M14.0989 4.42847C14.8528 5.51426 15.4735 6.68679 15.9474 7.92081C16.8566 7.84253 17.7658 7.72812 18.663 7.59567C17.5612 6.03632 15.9452 4.91497 14.0989 4.42847Z" fill="white"/>
<path d="M14.0327 8.05287C13.5137 6.86727 12.8526 5.74916 12.0637 4.72314C11.2767 5.74927 10.6176 6.86741 10.1008 8.05287C11.4075 8.11312 12.7261 8.11312 14.0327 8.05287Z" fill="white"/>
<path d="M1.82328 7.99145C2.07898 8.15219 2.4085 8.13296 2.64377 7.94358C2.87899 7.74525 2.98321 7.3763 3.08655 7.09902L3.46028 6.09529H6.64223L7.01595 7.07763C7.15366 7.43888 7.32142 7.97579 7.74754 8.07768C7.97084 8.12934 8.20557 8.08095 8.39023 7.94518C8.57489 7.80941 8.69109 7.59979 8.70837 7.37124C8.67722 7.08009 8.59593 6.79651 8.46811 6.53306L6.42333 1.48253C6.30997 1.12845 6.15701 0.788288 5.96737 0.468505C5.67559 0.0439209 5.11266 0.0258103 4.63155 0.19991C4.05232 0.409507 3.8813 1.1115 3.67917 1.62464C3.6778 1.62812 1.6771 6.57579 1.6771 6.57579C1.48518 7.05141 1.27829 7.66393 1.82328 7.99145ZM5.03523 1.80616L6.21512 4.90473H3.87671L5.03523 1.80616Z" fill="white"/>
<path d="M21.7751 19.2082C22.1108 19.2082 22.383 18.936 22.383 18.6003C22.383 18.2645 22.1108 17.9923 21.7751 17.9923H17.7139L17.7829 17.2234C17.8129 16.889 17.5661 16.5935 17.2316 16.5635C16.8972 16.5335 16.6017 16.7803 16.5717 17.1148L16.4929 17.9923H15.1064C14.7707 17.9923 14.4985 18.2645 14.4985 18.6003C14.4985 18.936 14.7707 19.2082 15.1064 19.2082H16.3837L16.1918 21.3451C16.1775 21.5035 16.2259 21.6611 16.3265 21.7842C16.6247 22.1251 16.9566 22.4351 17.3171 22.7092C16.5532 23.1875 15.6847 23.4734 14.7861 23.5425C14.4623 23.5715 14.2186 23.8501 14.233 24.1749C14.2474 24.4997 14.5147 24.7557 14.8399 24.756C14.858 24.756 14.8764 24.7551 14.8948 24.7536C16.17 24.6616 17.3914 24.203 18.4119 23.4329C19.2661 23.9085 20.3706 24.4662 21.7178 24.5935C21.7374 24.5953 21.7567 24.5962 21.7757 24.5962C22.1002 24.5959 22.3673 24.3408 22.3824 24.0166C22.3976 23.6924 22.1555 23.4135 21.8324 23.3829C20.861 23.2911 20.0391 22.8792 19.3638 22.5489C20.1839 21.5818 20.7701 20.4386 21.0769 19.2083L21.7751 19.2082ZM18.294 21.9135C17.9856 21.6948 17.6956 21.4513 17.427 21.1853L17.6046 19.2082H19.8215C19.5333 20.218 19.0098 21.1452 18.294 21.9135Z" fill="white"/>
<path d="M12.0679 0.573122C10.7376 0.572312 9.41715 0.800083 8.16406 1.2465L8.72664 2.63158C12.5403 1.30169 16.7794 2.35539 19.5266 5.31604C22.2738 8.27668 23.0079 12.5827 21.3969 16.2864L21.7762 16.2864C22.1669 16.2867 22.5511 16.3864 22.8927 16.5762C23.4488 15.1974 23.7339 13.7243 23.7323 12.2377C23.7323 6.1571 18.4989 0.573122 12.0679 0.573122Z" fill="white"/>
<path d="M1.89505 12.3708C1.89393 11.549 1.99413 10.7303 2.19338 9.93306C1.68084 9.9338 1.1817 9.76941 0.769919 9.46423C-0.126582 12.9565 0.641553 16.667 2.85085 19.5164C5.06014 22.3657 8.46247 24.0337 12.068 24.0353C12.2256 24.0353 12.3876 24.031 12.5453 24.0225C12.5932 23.5722 12.7742 23.1463 13.0652 22.7994C13.1738 22.6679 13.2984 22.5505 13.436 22.4499C12.9828 22.5135 12.5256 22.5449 12.068 22.5437C6.45186 22.5383 1.90047 17.9869 1.89505 12.3708Z" fill="white"/>
</svg>
