<svg width="49" height="49" viewBox="0 0 49 49" fill="none" xmlns="http://www.w3.org/2000/svg">
<rect x="0.775391" y="0.859375" width="47.4612" height="47.4612" rx="23.7306" fill="white" fill-opacity="0.9" stroke="white"/>
<path d="M14.4063 23.1105L15.1846 23.0432C15.1486 22.6264 14.7906 22.3119 14.3726 22.33C13.9546 22.348 13.625 22.6921 13.625 23.1105H14.4063ZM32.3605 25.0097L31.6256 29.2593L33.1653 29.5257L33.9002 25.2759L32.3605 25.0097ZM25.0781 34.5853H20.2358V36.1478H25.0781V34.5853ZM19.2864 33.7129L18.4404 23.9288L16.8838 24.0634L17.7298 33.8475L19.2864 33.7129ZM31.6256 29.2593C31.0977 32.312 28.3451 34.5853 25.0781 34.5853V36.1478C29.0638 36.1478 32.5008 33.3676 33.1653 29.5257L31.6256 29.2593ZM25.0883 17.7625L24.398 21.9756L25.94 22.2282L26.6303 18.0152L25.0883 17.7625ZM18.7685 23.1224L20.2672 21.831L19.2472 20.6473L17.7485 21.9387L18.7685 23.1224ZM22.9938 17.6291L23.4893 15.7188L21.9769 15.3265L21.4813 17.2368L22.9938 17.6291ZM24.2377 15.344L24.3888 15.3926L24.8667 13.9049L24.7156 13.8564L24.2377 15.344ZM22.2432 19.5499C22.5681 18.9415 22.8205 18.2971 22.9938 17.6291L21.4813 17.2368C21.3393 17.7843 21.1323 18.3133 20.865 18.8137L22.2432 19.5499ZM24.3888 15.3926C24.7079 15.4951 24.9346 15.7416 25.0091 16.0289L26.5216 15.6365C26.3075 14.8115 25.676 14.1649 24.8667 13.9049L24.3888 15.3926ZM23.4893 15.7188C23.5258 15.5782 23.6274 15.449 23.781 15.3749L23.1027 13.9673C22.5485 14.2343 22.1323 14.7272 21.9769 15.3265L23.4893 15.7188ZM23.781 15.3749C23.9214 15.3073 24.0866 15.2955 24.2377 15.344L24.7156 13.8564C24.1847 13.6859 23.6054 13.7251 23.1027 13.9673L23.781 15.3749ZM26.0247 23.8917H31.4217V22.3292H26.0247V23.8917ZM16.1967 34.7479L15.1846 23.0432L13.6279 23.1778L14.64 34.8825L16.1967 34.7479ZM15.1875 34.8589V23.1105H13.625V34.8589H15.1875ZM14.64 34.8825C14.6263 34.7236 14.7515 34.5853 14.9132 34.5853V36.1478C15.6695 36.1478 16.2617 35.4998 16.1967 34.7479L14.64 34.8825ZM26.6303 18.0152C26.76 17.2234 26.723 16.4132 26.5216 15.6365L25.0091 16.0289C25.1559 16.5949 25.1829 17.1854 25.0883 17.7625L26.6303 18.0152ZM20.2358 34.5853C19.7421 34.5853 19.3292 34.2072 19.2864 33.7129L17.7298 33.8475C17.8422 35.148 18.9299 36.1478 20.2358 36.1478V34.5853ZM20.2672 21.831C20.9753 21.2207 21.7388 20.4943 22.2432 19.5499L20.865 18.8137C20.5042 19.4891 19.9297 20.0592 19.2472 20.6473L20.2672 21.831ZM33.9002 25.2759C34.1661 23.7379 32.9834 22.3292 31.4217 22.3292V23.8917C32.0119 23.8917 32.4617 24.4248 32.3605 25.0097L33.9002 25.2759ZM14.9132 34.5853C15.0655 34.5853 15.1875 34.7086 15.1875 34.8589H13.625C13.625 35.57 14.2009 36.1478 14.9132 36.1478V34.5853ZM24.398 21.9756C24.2338 22.9786 25.0069 23.8917 26.0247 23.8917V22.3292C25.9727 22.3292 25.9311 22.2822 25.94 22.2282L24.398 21.9756ZM18.4404 23.9288C18.414 23.6226 18.5362 23.3226 18.7685 23.1224L17.7485 21.9387C17.1356 22.4669 16.8141 23.2575 16.8838 24.0634L18.4404 23.9288Z" fill="white"/>
</svg>
