<svg width="32" height="33" viewBox="0 0 32 33" fill="none" xmlns="http://www.w3.org/2000/svg">
<g clip-path="url(#clip0_418_3514)">
<path d="M27.2251 26.8562H22.643V19.6806C22.643 17.9694 22.6126 15.7674 20.2598 15.7674C17.8735 15.7674 17.5078 17.6311 17.5078 19.5572V26.8562H12.9272V12.0996H17.3265V14.1156H17.3874C18.285 12.5827 19.952 11.6669 21.7272 11.7324C26.3718 11.7324 27.2267 14.7876 27.2267 18.7602L27.2251 26.8562ZM7.75695 10.0821C6.288 10.0821 5.09791 8.89202 5.09791 7.42307C5.09791 5.95412 6.288 4.76402 7.75695 4.76402C9.22591 4.76402 10.416 5.95412 10.416 7.42307C10.416 8.89202 9.22591 10.0821 7.75695 10.0821ZM10.0472 26.8562H5.46057V12.0996H10.0472V26.8562ZM29.5093 0.509544H3.1581C1.91314 0.49583 0.892191 1.49393 0.876953 2.73888V29.1983C0.892191 30.4448 1.91314 31.4429 3.1581 31.4292H29.5093C30.7573 31.4444 31.7829 30.4463 31.7996 29.1983V2.73735C31.7813 1.48935 30.7558 0.491259 29.5093 0.508021" fill="white"/>
</g>
<defs>
<clipPath id="clip0_418_3514">
<rect width="30.8571" height="32" fill="white" transform="translate(0.876953 0.0800781)"/>
</clipPath>
</defs>
</svg>
