<svg width="49" height="49" viewBox="0 0 49 49" fill="none" xmlns="http://www.w3.org/2000/svg">
<rect x="0.694336" y="0.507324" width="48" height="48" rx="24" fill="white"/>
<g clip-path="url(#clip0_91_8552)">
<rect x="9.28571" y="9.20624" width="30.8172" height="30.6022" fill="white"/>
<path d="M38.3321 8.50732H11.0566C10.4301 8.50732 9.82922 8.7562 9.38622 9.1992C8.94321 9.64221 8.69434 10.243 8.69434 10.8695V38.1451C8.69434 38.7716 8.94321 39.3724 9.38622 39.8154C9.82922 40.2585 10.4301 40.5073 11.0566 40.5073H38.3321C38.9586 40.5073 39.5595 40.2585 40.0025 39.8154C40.4455 39.3724 40.6943 38.7716 40.6943 38.1451V10.8695C40.6943 10.243 40.4455 9.64221 40.0025 9.1992C39.5595 8.7562 38.9586 8.50732 38.3321 8.50732ZM18.2321 35.7673H13.421V20.4851H18.2321V35.7673ZM15.8232 18.3673C15.2775 18.3643 14.7449 18.1996 14.2926 17.8941C13.8404 17.5886 13.4888 17.156 13.2822 16.6509C13.0756 16.1458 13.0232 15.5908 13.1317 15.0559C13.2402 14.5211 13.5047 14.0304 13.8919 13.6457C14.279 13.261 14.7714 12.9997 15.307 12.8946C15.8425 12.7895 16.3972 12.8454 16.9009 13.0553C17.4047 13.2652 17.8351 13.6195 18.1376 14.0737C18.4402 14.5279 18.6014 15.0616 18.601 15.6073C18.6062 15.9727 18.5377 16.3354 18.3997 16.6737C18.2617 17.0121 18.057 17.3192 17.7978 17.5767C17.5385 17.8343 17.2301 18.037 16.8909 18.1729C16.5517 18.3087 16.1886 18.3748 15.8232 18.3673ZM35.9655 35.7807H31.1566V27.4318C31.1566 24.9695 30.1099 24.2095 28.7588 24.2095C27.3321 24.2095 25.9321 25.2851 25.9321 27.494V35.7807H21.121V20.4962H25.7477V22.614H25.8099C26.2743 21.674 27.901 20.0673 30.3832 20.0673C33.0677 20.0673 35.9677 21.6607 35.9677 26.3273L35.9655 35.7807Z" fill="#0A66C2"/>
</g>
<defs>
<clipPath id="clip0_91_8552">
<rect width="32" height="32" fill="white" transform="translate(8.69434 8.50732)"/>
</clipPath>
</defs>
</svg>
