<svg width="32" height="33" viewBox="0 0 32 33" fill="none" xmlns="http://www.w3.org/2000/svg">
<path d="M25.6341 29.7761C25.6341 29.9016 25.5373 30.1384 25.0697 30.4457C24.6223 30.7397 23.942 31.0237 23.0565 31.2699C21.2925 31.7602 18.8271 32.0699 16.0837 32.0699C13.3402 32.0699 10.8748 31.7602 9.11082 31.2699C8.22532 31.0237 7.54497 30.7397 7.09762 30.4457C6.62999 30.1384 6.5332 29.9016 6.5332 29.7761C6.5332 29.6507 6.62999 29.4139 7.09762 29.1065C7.54497 28.8125 8.22532 28.5286 9.11082 28.2824C10.8748 27.7921 13.3402 27.4824 16.0837 27.4824C18.8271 27.4824 21.2925 27.7921 23.0565 28.2824C23.942 28.5286 24.6223 28.8125 25.0697 29.1065C25.5373 29.4139 25.6341 29.6507 25.6341 29.7761Z" stroke="white"/>
<path d="M16.0791 1.26172C10.1643 1.26172 5.36914 6.05686 5.36914 11.9717C5.36914 21.708 15.1055 30.4707 16.0791 30.4707C17.0527 30.4707 26.7891 21.708 26.7891 11.9717C26.7891 6.05686 21.9939 1.26172 16.0791 1.26172ZM16.0791 15.8662C13.9283 15.8662 12.1846 14.1224 12.1846 11.9717C12.1846 9.82092 13.9283 8.07715 16.0791 8.07715C18.2299 8.07715 19.9736 9.82092 19.9736 11.9717C19.9736 14.1224 18.2299 15.8662 16.0791 15.8662Z" fill="white"/>
</svg>
