<svg width="73" height="65" viewBox="0 0 73 65" fill="none" xmlns="http://www.w3.org/2000/svg">
<path fill-rule="evenodd" clip-rule="evenodd" d="M69.6913 21.2984C63.2271 9.53527 50.2923 1.93309 35.9317 2.87991C16.2187 4.17963 1.28409 21.0966 2.57427 40.665C3.08039 48.3413 6.00809 55.2854 10.5696 60.8119L13.5332 58.8312C9.30327 53.8132 6.58318 47.4634 6.11954 40.4313C4.95757 22.8076 18.408 7.57181 36.162 6.40126C49.2137 5.54074 60.9577 12.5211 66.7248 23.281L69.6913 21.2984Z" fill="#E1B683"/>
<path fill-rule="evenodd" clip-rule="evenodd" d="M59.3902 21.1078C54.0113 14.5269 45.5922 10.5528 36.4067 11.1584C21.3874 12.1487 10.0067 25.0085 10.9873 39.8816C11.6573 50.043 17.9239 58.5153 26.6168 62.5476L28.8701 59.6985C20.9205 56.3398 15.1258 48.7779 14.5239 39.6487C13.6708 26.7103 23.5711 15.5233 36.6367 14.6619C44.9213 14.1157 52.4893 17.852 57.1361 23.958L59.3902 21.1078Z" fill="white"/>
</svg>
