<svg width="49" height="49" viewBox="0 0 49 49" fill="none" xmlns="http://www.w3.org/2000/svg">
<path d="M5.32633 6.16797H43.6776C43.6776 6.16797 45.5957 6.16797 45.5957 8.08609V34.9323C45.5957 34.9323 45.5957 36.8505 43.6776 36.8505H5.32633C5.32633 36.8505 3.4082 36.8505 3.4082 34.9323V8.08609C3.4082 8.08609 3.4082 6.16797 5.32633 6.16797Z" stroke="white" stroke-width="3" stroke-linecap="round" stroke-linejoin="round"/>
<path d="M23.5449 36.8496V42.6021" stroke="white" stroke-width="3" stroke-linecap="round" stroke-linejoin="round"/>
<path d="M15.873 42.6016H31.2142" stroke="white" stroke-width="3" stroke-linecap="round" stroke-linejoin="round"/>
<path d="M21.7945 27.6241L19.7207 28.6048C19.2671 28.8195 18.7755 28.9426 18.2742 28.9674C17.7729 28.9921 17.2716 28.9181 16.799 28.749C16.3264 28.58 15.8917 28.3196 15.5197 27.9826C15.1477 27.6457 14.8458 27.2388 14.631 26.7851C14.4163 26.3313 14.2931 25.8399 14.2683 25.3385C14.2436 24.8373 14.3178 24.336 14.4868 23.8633C14.6558 23.3908 14.9162 22.956 15.2531 22.584C15.5901 22.2121 15.9971 21.9101 16.4507 21.6954L18.5245 20.7129L21.7945 27.6241Z" stroke="white" stroke-width="3" stroke-linecap="round" stroke-linejoin="round"/>
<path d="M21.7935 27.6241C25.8472 25.7058 30.3782 25.0299 34.8154 25.6816L36.1897 25.8841L29.0029 10.6797L28.2866 11.8703C25.9777 15.7173 22.5812 18.7942 18.5254 20.7129L21.7935 27.6241Z" stroke="white" stroke-width="3" stroke-linecap="round" stroke-linejoin="round"/>
<path d="M21.791 27.625C22.2187 28.5303 22.826 29.3389 23.576 30.0019C24.3262 30.6649 25.2033 31.1686 26.1541 31.4819" stroke="white" stroke-width="3" stroke-linecap="round" stroke-linejoin="round"/>
</svg>
