<svg width="49" height="49" viewBox="0 0 49 49" fill="none" xmlns="http://www.w3.org/2000/svg">
<path d="M45.5973 45.4785C44.7346 43.0136 43.1271 40.8776 40.9975 39.3662C38.8681 37.8546 36.3213 37.0421 33.7098 37.041C31.0983 37.0421 28.5516 37.8546 26.422 39.3662C24.2924 40.8776 22.685 43.0136 21.8223 45.4785" stroke="white" stroke-width="3" stroke-linecap="round" stroke-linejoin="round"/>
<path d="M27.0332 22.5098C28.2319 23.7503 29.6681 24.7365 31.2563 25.4098C32.8444 26.0831 34.552 26.4295 36.277 26.4285C38.0252 26.4495 39.7596 26.1178 41.377 25.4535" stroke="white" stroke-width="3" stroke-linecap="round" stroke-linejoin="round"/>
<path d="M25.9824 26.4848C25.9824 28.5336 26.7962 30.4984 28.245 31.9472C29.6936 33.3958 31.6586 34.2098 33.7074 34.2098C35.7562 34.2098 37.721 33.3958 39.1699 31.9472C40.6185 30.4984 41.4324 28.5336 41.4324 26.4848C41.4324 24.436 40.6185 22.4711 39.1699 21.0223C37.721 19.5736 35.7562 18.7598 33.7074 18.7598C31.6586 18.7598 29.6936 19.5736 28.245 21.0223C26.7962 22.4711 25.9824 24.436 25.9824 26.4848Z" stroke="white" stroke-width="3" stroke-linecap="round" stroke-linejoin="round"/>
<path d="M33.4629 37.041V45.4785" stroke="white" stroke-width="3" stroke-linecap="round" stroke-linejoin="round"/>
<path d="M12.7648 41.9153C9.92573 40.0141 7.591 37.4517 5.96147 34.4483C4.33195 31.445 3.45639 28.0908 3.41014 24.6742C3.36388 21.2577 4.14831 17.8809 5.69593 14.8346C7.24356 11.7883 9.50807 9.16354 12.2947 7.18611C15.0812 5.20869 18.3065 3.93782 21.693 3.4828C25.0794 3.02778 28.5257 3.40224 31.7355 4.57397C34.9451 5.74571 37.8223 7.67963 40.119 10.2094C42.4159 12.7392 44.0638 15.789 44.921 19.0967" stroke="white" stroke-width="3" stroke-linecap="round" stroke-linejoin="round"/>
<path d="M17.0015 38.2602C14.7388 31.0885 14.1613 23.4914 15.314 16.0602C15.7989 11.7633 17.1991 7.62028 19.4202 3.91016" stroke="white" stroke-width="3" stroke-linecap="round" stroke-linejoin="round"/>
<path d="M3.44727 22.9785H20.2848" stroke="white" stroke-width="3" stroke-linecap="round" stroke-linejoin="round"/>
<path d="M6.65039 13.1348H42.3503" stroke="white" stroke-width="3" stroke-linecap="round" stroke-linejoin="round"/>
<path d="M5.16992 32.8223H20.2824" stroke="white" stroke-width="3" stroke-linecap="round" stroke-linejoin="round"/>
<path d="M29.584 3.91016C31.3459 6.73516 32.5667 9.86343 33.184 13.1352" stroke="white" stroke-width="3" stroke-linecap="round" stroke-linejoin="round"/>
</svg>
