<svg width="49" height="49" viewBox="0 0 49 49" fill="none" xmlns="http://www.w3.org/2000/svg">
<path d="M38.5645 13.1348L36.5301 9.06414C36.2965 8.59693 35.9372 8.20404 35.4928 7.92948C35.0483 7.65495 34.5362 7.50962 34.0138 7.50977H23.4276C22.9052 7.50962 22.3931 7.65495 21.9486 7.92948C21.5042 8.20404 21.145 8.59693 20.9113 9.06414L18.877 13.1348H6.2207C5.47479 13.1348 4.7594 13.4311 4.23197 13.9585C3.70452 14.486 3.4082 15.2014 3.4082 15.9473V38.4473C3.4082 39.1931 3.70452 39.9086 4.23197 40.4361C4.7594 40.9635 5.47479 41.2598 6.2207 41.2598H42.7832C43.5291 41.2598 44.2446 40.9635 44.772 40.4361C45.2995 39.9086 45.5957 39.1931 45.5957 38.4473V15.9473C45.5957 15.2014 45.2995 14.486 44.772 13.9585C44.2446 13.4311 43.5291 13.1348 42.7832 13.1348H38.5645Z" stroke="white" stroke-width="3" stroke-linecap="round" stroke-linejoin="round"/>
<path d="M9.0332 21.5723H25.9082V35.6348H9.0332V21.5723Z" stroke="white" stroke-width="3" stroke-linecap="round" stroke-linejoin="round"/>
<path d="M35.752 24.3848H38.5645" stroke="white" stroke-width="3" stroke-linecap="round" stroke-linejoin="round"/>
<path d="M35.752 32.8223H38.5645" stroke="white" stroke-width="3" stroke-linecap="round" stroke-linejoin="round"/>
<path d="M11.8457 13.1348V10.3223" stroke="white" stroke-width="3" stroke-linecap="round" stroke-linejoin="round"/>
</svg>
