<svg width="49" height="49" viewBox="0 0 49 49" fill="none" xmlns="http://www.w3.org/2000/svg">
<path d="M39.502 17.6055H9.50195V33.5429H39.502V17.6055Z" stroke="white" stroke-width="3" stroke-linecap="round" stroke-linejoin="round"/>
<path d="M9.50195 39.6367H19.8145" stroke="white" stroke-width="3" stroke-linecap="round" stroke-linejoin="round"/>
<path d="M9.50195 45.4785H19.8145" stroke="white" stroke-width="3" stroke-linecap="round" stroke-linejoin="round"/>
<path d="M26.377 45.4792V39.6367H39.502V45.4792" stroke="white" stroke-width="3" stroke-linecap="round" stroke-linejoin="round"/>
<path d="M17.9395 33.5426L25.357 25.302C25.8493 24.7551 26.455 24.3218 27.1315 24.0323C27.8081 23.7426 28.5396 23.6038 29.2753 23.6252C30.0109 23.6466 30.7331 23.8277 31.3918 24.1562C32.0503 24.4845 32.6297 24.9523 33.0895 25.527L39.502 33.5426" stroke="white" stroke-width="3" stroke-linecap="round" stroke-linejoin="round"/>
<path d="M16.0645 25.1055C15.5467 25.1055 15.127 24.6857 15.127 24.168C15.127 23.6503 15.5467 23.2305 16.0645 23.2305" stroke="white" stroke-width="3"/>
<path d="M16.0645 25.1055C16.5822 25.1055 17.002 24.6857 17.002 24.168C17.002 23.6503 16.5822 23.2305 16.0645 23.2305" stroke="white" stroke-width="3"/>
<path d="M3.4082 45.4785V7.04102C3.4082 6.04646 3.80329 5.09263 4.50656 4.38937C5.20982 3.6861 6.16365 3.29102 7.1582 3.29102H41.8457C42.8402 3.29102 43.794 3.6861 44.4973 4.38937C45.2006 5.09263 45.5957 6.04646 45.5957 7.04102V45.4785" stroke="white" stroke-width="3" stroke-linecap="round" stroke-linejoin="round"/>
<path d="M3.44336 11.1934H45.5727" stroke="white" stroke-width="3" stroke-linecap="round" stroke-linejoin="round"/>
<path d="M11.5293 3.29102V11.1923" stroke="white" stroke-width="3" stroke-linecap="round" stroke-linejoin="round"/>
<path d="M19.6543 3.29102V11.1923" stroke="white" stroke-width="3" stroke-linecap="round" stroke-linejoin="round"/>
</svg>
