<svg width="49" height="49" viewBox="0 0 49 49" fill="none" xmlns="http://www.w3.org/2000/svg">
<path d="M18.1543 18.0302C18.1543 19.3332 18.6719 20.5829 19.5933 21.5042C20.5147 22.4256 21.7642 22.9433 23.0674 22.9433C24.3703 22.9433 25.62 22.4256 26.5414 21.5042C27.4627 20.5829 27.9804 19.3332 27.9804 18.0302C27.9804 16.7272 27.4627 15.4776 26.5414 14.5562C25.62 13.6348 24.3703 13.1172 23.0674 13.1172C21.7642 13.1172 20.5147 13.6348 19.5933 14.5562C18.6719 15.4776 18.1543 16.7272 18.1543 18.0302Z" stroke="white" stroke-width="3" stroke-linecap="round" stroke-linejoin="round"/>
<path d="M3.41602 15.4978L38.509 3.29102" stroke="white" stroke-width="3" stroke-linecap="round" stroke-linejoin="round"/>
<path d="M7.20117 20.3085L9.05223 24.937C10.1221 27.6244 12.1892 29.7943 14.8215 30.9934C17.4537 32.1925 20.4475 32.328 23.1773 31.3716L23.7389 31.1732L25.5338 35.3638L22.0638 41.1508C21.8697 41.4671 21.7401 41.8187 21.6828 42.1851C21.6254 42.5516 21.6411 42.9261 21.7293 43.2865C21.8174 43.6468 21.976 43.9862 22.1961 44.2849C22.4163 44.5836 22.6934 44.8356 23.0114 45.0266C23.3296 45.2175 23.6823 45.3435 24.0494 45.3973C24.4165 45.4511 24.7906 45.4316 25.1502 45.34C25.5096 45.2483 25.8473 45.0863 26.1439 44.8633C26.4404 44.6402 26.6898 44.3606 26.8776 44.0408L30.4225 38.1338L32.8349 37.7314C33.4932 37.6213 34.1689 37.749 34.7414 38.0921C35.3138 38.4351 35.7454 38.9708 35.9586 39.603L37.2501 43.4755C37.3579 43.8358 37.537 44.1711 37.7768 44.461C38.0166 44.7508 38.3123 44.9895 38.6461 45.163C38.98 45.3364 39.3453 45.4408 39.7204 45.4703C40.0954 45.4997 40.4727 45.4534 40.8295 45.3341C41.1863 45.2151 41.5156 45.0253 41.7976 44.7763C42.0798 44.5275 42.3089 44.2243 42.4714 43.8851C42.6342 43.5458 42.727 43.1773 42.7444 42.8016C42.7619 42.4258 42.7036 42.0503 42.5731 41.6974L41.2853 37.8306C40.6617 35.9201 39.3711 34.2981 37.6495 33.2612C35.9281 32.2243 33.8907 31.8418 31.9103 32.184L30.3944 32.4366L29.0487 29.2997L43.6474 24.1789C44.0033 24.0634 44.3328 23.878 44.6159 23.6333C44.8992 23.3886 45.1306 23.0899 45.2967 22.7545C45.4628 22.419 45.5601 22.0538 45.583 21.6803C45.6059 21.3066 45.5539 20.9323 45.43 20.5791C45.3061 20.2259 45.1128 19.9011 44.8615 19.6237C44.6103 19.3463 44.3059 19.122 43.9668 18.9639C43.6274 18.8058 43.2601 18.7172 42.886 18.7031C42.5119 18.6891 42.139 18.75 41.7888 18.8823L21.3263 26.0711C19.9612 26.5463 18.4655 26.4765 17.1505 25.8765C15.8355 25.2765 14.8025 24.1926 14.2666 22.8501L12.7056 18.9497" stroke="white" stroke-width="3" stroke-linecap="round" stroke-linejoin="round"/>
</svg>
