<svg width="49" height="49" viewBox="0 0 49 49" fill="none" xmlns="http://www.w3.org/2000/svg">
<rect x="0.694336" y="0.507324" width="48" height="48" rx="24" fill="white"/>
<path d="M40.057 16.7546C39.8761 16.0738 39.5195 15.4525 39.023 14.9528C38.5265 14.4531 37.9075 14.0926 37.2279 13.9073C34.7261 13.2346 24.7261 13.2346 24.7261 13.2346C24.7261 13.2346 14.7261 13.2346 12.2243 13.9073C11.5446 14.0926 10.9256 14.4531 10.4291 14.9528C9.93263 15.4525 9.57608 16.0738 9.39517 16.7546C8.72607 19.2673 8.72607 24.5073 8.72607 24.5073C8.72607 24.5073 8.72607 29.7473 9.39517 32.2601C9.57608 32.9409 9.93263 33.5622 10.4291 34.0619C10.9256 34.5616 11.5446 34.9221 12.2243 35.1073C14.7261 35.7801 24.7261 35.7801 24.7261 35.7801C24.7261 35.7801 34.7261 35.7801 37.2279 35.1073C37.9075 34.9221 38.5265 34.5616 39.023 34.0619C39.5195 33.5622 39.8761 32.9409 40.057 32.2601C40.7261 29.7473 40.7261 24.5073 40.7261 24.5073C40.7261 24.5073 40.7261 19.2673 40.057 16.7546Z" fill="#FF0302"/>
<path d="M21.4534 29.2656V19.7492L29.817 24.5074L21.4534 29.2656Z" fill="#FEFEFE"/>
</svg>
